<?xml version="1.0" encoding="utf-8"?>
<!-- Generator: Adobe Illustrator 25.0.1, SVG Export Plug-In . SVG Version: 6.00 Build 0)  -->
<svg version="1.1" id="Calque_1" xmlns="http://www.w3.org/2000/svg" xmlns:xlink="http://www.w3.org/1999/xlink" x="0px" y="0px"
	 viewBox="0 0 802.2 1139.5" style="enable-background:new 0 0 802.2 1139.5;" xml:space="preserve">
<style type="text/css">
	.st0{fill:#020203;}
</style>
<path class="st0" d="M621.7,0.9l2.5,1l1,7.5l-4,22l-10,33l-12,21l-14,41l-11,45v6l-7,32l-3,24l-2,7v6l-1,1v6l-2,7v7l-2,7l1.5,0.5
	l135-97l8.5-8.5l10.5-12.5l9-8l15-9l7-2l11-1l9,2l8,4l5,5h2l21-9l1.5,2.5v5l-7,13l-14.5,16.5l-20,18l-9.5,6v2h-1.5l-17,16h-1.5v2
	h-1.5l-5,6h-1.5v2h-2v1.5l-32.5,34.5h-1.5v1.5l-38,43l-45,57l2.5-1.5l30-22l23-13l25-9l18-1h2l7,1l4.5,3.5l0.5,1.5l1-1l6.5,6.5
	l0.5,1.5h17l-0.5,1.5l-7.5,9.5l-17,12l-35,16l-82.5,73.5l14,51l5,27v8l2,7l2,33l3,12v18l1,1v60v2v6l-1,1v21l-1,1v13l-1,1l-2,35l-1,1
	l-4,47l-1,1v5l-2,3l1,2l-7,23l-13,26l-18,24l-19.5,19.5l-35,25l-33,17l-43,16l-26,6l-19,19h-1.5v1.5l-14.5,14.5l-3.5,2.5v1.5h-2v2
	h-1.5l-36,36h-1.5l-2.5,4h-1.5v1.5l-28.5,27.5h-1.5l-6.5,8l-50.5,48.5l-3.5,4.5l-11,10h-3L0.2,1059.4l5.5-5.5l4.5-2v-2h1.5l112-92
	l14.5-10l1.5-3l231.5-188.5l8-23l8-33l2-21l1-1l1-26l-1-2l1-2l-1-1v-10l-1-1l-2-18l-11-34l-14-25l-14.5-19.5l-2.5-1.5l-3.5-4.5
	l-36-30l-44-27l-9.5-8.5l-3-7v-6l2-6l8.5-10.5l8-5l14-3l2.5,1v-3h-2.5l-28-13l-15-9l-25-18l-13.5-12.5l-6-11l-1-10l2-3.5l8.5-3h8
	l29,6l21,6l13,2l30,8h4l17,5l26,5l4,2h4l22,6h4l4,2l13,2l8,3h5l4,2l17,3l17,5l18,3l26.5-36.5l1-69l1-1v-16l1-1v-12l1-1v-10l1-1l2-27
	l10-58l10-38l13-37l15-31l17-26l21.5-22.5l14-10l4-1L621.7,0.9z M364.2,454.9v2l6,3l26,22h1v2l3,1l13,15l23,33l14-28l16-25l-2-2
	l-25-5l-7-3h-6l-11-4l-15-2L364.2,454.9z"/>
</svg>
